<svg width="225" height="38" viewBox="0 0 225 38" fill="none" xmlns="http://www.w3.org/2000/svg">
<path d="M9.86328 24.4756L7.66602 37H0.512695L6.68945 1.45312L19.1406 1.47754C22.9818 1.47754 26.001 2.54362 28.1982 4.67578C30.3955 6.80794 31.3558 9.59115 31.0791 13.0254C30.8187 16.5085 29.362 19.2917 26.709 21.375C24.0723 23.4583 20.7031 24.5 16.6016 24.5L9.86328 24.4756ZM10.8643 18.543L16.8213 18.5918C18.7419 18.5918 20.3369 18.0954 21.6064 17.1025C22.876 16.1097 23.6328 14.7669 23.877 13.0742C24.1211 11.3815 23.8444 10.0306 23.0469 9.02148C22.2656 8.01237 21.1019 7.47526 19.5557 7.41016L12.8174 7.38574L10.8643 18.543ZM47.29 23.9873H41.4795L39.209 37H32.0557L38.2324 1.45312L50 1.47754C53.9388 1.47754 56.9661 2.40527 59.082 4.26074C61.2142 6.11621 62.1582 8.69596 61.9141 12C61.5723 16.8828 58.9681 20.2764 54.1016 22.1807L59.1064 36.6094V37H51.4893L47.29 23.9873ZM42.5049 18.0547L47.8271 18.1035C49.7152 18.071 51.2695 17.5664 52.4902 16.5898C53.7272 15.597 54.4678 14.2542 54.7119 12.5615C54.9398 10.9827 54.6875 9.74577 53.9551 8.85059C53.2227 7.9554 52.0589 7.47526 50.4639 7.41016L44.3604 7.38574L42.5049 18.0547ZM77.5391 37.4883C75.179 37.4395 73.0957 36.8861 71.2891 35.8281C69.4987 34.7539 68.0745 33.2158 67.0166 31.2139C65.9749 29.1956 65.3727 26.8844 65.21 24.2803C65.0309 21.611 65.3158 18.7627 66.0645 15.7354C66.8132 12.708 68.0176 10.0469 69.6777 7.75195C71.3379 5.45703 73.2829 3.73991 75.5127 2.60059C77.7588 1.46126 80.1839 0.916016 82.7881 0.964844C85.1807 1.01367 87.2721 1.58333 89.0625 2.67383C90.8529 3.74805 92.2607 5.30241 93.2861 7.33691C94.3115 9.35514 94.8975 11.6501 95.0439 14.2217C95.2067 17.0863 94.8975 20.0322 94.1162 23.0596C93.335 26.0869 92.1224 28.7074 90.4785 30.9209C88.8346 33.1344 86.9059 34.7946 84.6924 35.9014C82.4951 37.0081 80.1107 37.5371 77.5391 37.4883ZM87.6709 18.25L87.8662 15.9307C88.029 13.0335 87.6383 10.8363 86.6943 9.33887C85.7666 7.84147 84.3506 7.06022 82.4463 6.99512C79.4678 6.89746 77.0996 8.21582 75.3418 10.9502C73.6003 13.6846 72.6156 17.5094 72.3877 22.4248C72.2249 25.3057 72.6074 27.5273 73.5352 29.0898C74.4629 30.6361 75.9033 31.4417 77.8564 31.5068C80.4118 31.6208 82.5277 30.6279 84.2041 28.5283C85.8805 26.4124 86.9792 23.4258 87.5 19.5684L87.6709 18.25ZM96.9971 37L103.174 1.45312L113.379 1.47754C115.771 1.52637 117.92 2.07161 119.824 3.11328C121.745 4.13867 123.299 5.61979 124.487 7.55664C125.675 9.49349 126.392 11.6745 126.636 14.0996C126.766 15.5156 126.75 16.9642 126.587 18.4453L126.416 19.7393C125.7 24.9476 123.649 29.1305 120.264 32.2881C116.895 35.4294 112.801 37 107.983 37H96.9971ZM109.302 7.38574L105.176 31.1162L108.154 31.1406C111.442 31.1406 114.079 29.9362 116.064 27.5273C118.066 25.1185 119.214 21.4808 119.507 16.6143L119.556 15.833C119.604 13.1475 119.092 11.0885 118.018 9.65625C116.943 8.22396 115.34 7.47526 113.208 7.41016L109.302 7.38574ZM161.206 1.45312L157.202 24.8906C156.649 28.8132 155.021 31.9137 152.319 34.1924C149.618 36.471 146.265 37.5778 142.261 37.5127C139.754 37.4639 137.573 36.9186 135.718 35.877C133.879 34.819 132.52 33.3379 131.641 31.4336C130.762 29.513 130.461 27.3402 130.737 24.915L134.717 1.45312H141.87L137.891 24.9395C137.777 25.8509 137.769 26.7054 137.866 27.5029C138.192 30.1396 139.762 31.5068 142.578 31.6045C144.596 31.6696 146.248 31.1162 147.534 29.9443C148.82 28.7725 149.65 27.096 150.024 24.915L154.028 1.45312H161.206ZM189.941 25.1348C189.665 27.5924 188.826 29.7734 187.427 31.6777C186.027 33.5658 184.204 35.0225 181.958 36.0479C179.712 37.057 177.287 37.5371 174.683 37.4883C172.339 37.4395 170.296 36.9023 168.555 35.877C166.813 34.8353 165.438 33.3379 164.429 31.3848C163.436 29.4154 162.874 27.153 162.744 24.5977C162.63 22.5957 162.834 20.1055 163.354 17.127C163.892 14.1484 164.836 11.5036 166.187 9.19238C167.554 6.88118 169.173 5.05013 171.045 3.69922C173.682 1.8112 176.693 0.89974 180.078 0.964844C183.757 1.02995 186.67 2.16927 188.818 4.38281C190.983 6.58008 192.171 9.63997 192.383 13.5625L185.254 13.5381C185.254 11.292 184.806 9.64811 183.911 8.60645C183.016 7.56478 181.624 7.01139 179.736 6.94629C177.295 6.86491 175.285 7.73568 173.706 9.55859C172.144 11.3815 171.094 14.0426 170.557 17.542C170.036 20.9437 169.808 23.4909 169.873 25.1836C169.954 27.332 170.435 28.9189 171.313 29.9443C172.192 30.9535 173.421 31.4824 175 31.5312C177.181 31.6126 178.923 31.0999 180.225 29.9932C181.543 28.8701 182.414 27.2669 182.837 25.1836L189.941 25.1348ZM223.34 7.38574H212.793L207.666 37H200.513L205.64 7.38574H195.215L196.265 1.45312H224.39L223.34 7.38574Z" fill="#A6ABBD"/>
</svg>
